<svg xmlns="http://www.w3.org/2000/svg" viewBox="0 0 1080 350"><defs><style>.cls-1{fill:#1e397c;}.cls-2{fill:#16834f;}.cls-3{fill:#96c341;}.cls-4{fill:#1b9dca;}.cls-5{fill:#3e9146;}</style></defs><title>Sin título-1</title><g id="logo"><path class="cls-1" d="M179.88,5.82c14.05,4.28,35.61,13.74,49.6,28.16,17.66,18.19,23,26.2,28.06,51a63.14,63.14,0,0,1,1,9.51c.05,1.08-.3,1.58-1.45,1.68a50.05,50.05,0,0,1-5.05.22l-26.46-.18q-25.86-.15-51.72-.3a17.69,17.69,0,0,1-2.62-.21A4.21,4.21,0,0,1,167.89,93c-.24-.59-.41-1.21-.59-1.82-2.34-7.9-7.49-13.2-15.1-16.25a56.22,56.22,0,0,0-13.53-3.18,59.88,59.88,0,0,0-24.76,1.75A21.45,21.45,0,0,0,108.23,76a16.14,16.14,0,0,0-6.89,16.46,12.56,12.56,0,0,0,4,6.65,35.29,35.29,0,0,0,7.56,5.06c7,3.77,14.59,6.13,22.28,8.1,19.78,5,39.52,10.23,59.15,15.84a193.24,193.24,0,0,1,28,10.07A82.91,82.91,0,0,1,245,153.27a63.9,63.9,0,0,1,19.28,35.88,100.27,100.27,0,0,1-6.22,57.23c-6.8,16.24-18.41,28.4-33.53,37.36-11,6.5-22.84,10.74-35.18,13.82a221,221,0,0,1-52.78,6.83c-24.51.1-48.4-3.52-71.39-12.14-14.59-5.46-27.59-13.48-38.36-24.84-12.59-13.3-19.51-30.59-25.07-48a30,30,0,0,1-1.34-6.28c-.48-3.78-.51-3.24-.32-4.4a2.84,2.84,0,0,1,1.94-2.11,6,6,0,0,1,2.51-.22q42.09,0,84.2,0c3.89,0,5.58,1.22,6.9,5.08a39.42,39.42,0,0,0,6.23,11.8A27.71,27.71,0,0,0,117,233a73.82,73.82,0,0,0,19.25,2.56c7.69,0,15.37-.77,22.62-3.79a29.47,29.47,0,0,0,8.57-5.24c6-5.45,6.91-15-1-20-9.61-6.15-20.12-10.19-31-13.46-23.25-7-46.74-13.25-69.84-20.73a108.87,108.87,0,0,1-37.22-20.54C19,143.78,13.1,133.46,10.24,121.59,5.46,101.8,5.74,82.2,13.54,63.1a70.28,70.28,0,0,1,14-21.34C43.41,24.7,59.33,15.42,83.12,8.07,97.37,3.67,139.85-6.36,179.88,5.82Z"/><path class="cls-1" d="M1061.15,291a61.14,61.14,0,0,1-17.79,4.79A66.58,66.58,0,0,1,1013,293c-18.2-7.65-22.55-14.83-24.52-29.82-.35-2.66-.3-2.67,2.34-2.67,8.26,0,16.52.11,24.77,0a5.93,5.93,0,0,1,5.84,3.27c2.5,4.34,6.62,6.33,11.37,7.22a15.73,15.73,0,0,0,9.19-.89,9.63,9.63,0,0,0,1.29-.63c2.11-1.32,3.92-2.9,3.85-5.64s-2-4.21-4.23-5.3a53.17,53.17,0,0,0-7.64-2.86c-8.41-2.59-16.84-5.11-25.11-8.14a35.49,35.49,0,0,1-12.33-7.25,23.85,23.85,0,0,1-7.39-14.17,38.19,38.19,0,0,1,1.42-18.19c3.2-7,6.79-13.64,13.45-16.82,18.29-8.72,36.68-8.15,55,1.45,8.91,5.34,14.85,13.46,16.11,24.24.07.63.07,1.27.12,1.91s-.31,1-1,1H1075c-8.34,0-16.68-.14-25-.1a5.89,5.89,0,0,1-5.56-3.06c-2.67-4.58-10.37-7.69-16.59-5.84a8.7,8.7,0,0,0-4.42,2.74c-2,2.5-1.66,5.45,1,7.28a31.14,31.14,0,0,0,7.13,3.4c6.41,2.33,13,3.85,19.58,5.73a69.09,69.09,0,0,1,13.27,4.9c6.39,3.36,11,8,13.7,15a20.19,20.19,0,0,1,1.21,4.21,26.23,26.23,0,0,1,0,11.76C1078.71,267.76,1076.33,283.1,1061.15,291Z"/><path class="cls-1" d="M848.1,246.17a6.09,6.09,0,0,0,.33-2.93q0-25.26,0-50.51c0-.56,0-1.12,0-1.68-.1-1.09.26-1.57,1.47-1.56q14.07.06,28.15,0c1.2,0,1.57.46,1.46,1.56a13.62,13.62,0,0,0,0,1.43v98.16c0,2.46.21,2.35-2.33,2.34-8.34,0-16.68-.1-25,0a6.31,6.31,0,0,1-5.54-2.75c-.75-1-1.44-2.11-2.09-3.21q-14-23.73-27.93-47.49l-1.71-2.89a4.61,4.61,0,0,0-.34,2.64q0,24.9,0,49.8c0,.4,0,.8,0,1.2,0,2.36.32,2.34-2.32,2.34H785.72c-2.18,0-2.06.12-2.06-2.09V191.13c0-2.08,0-2.1,2.08-2.1,8.18,0,16.36.1,24.54,0a6.91,6.91,0,0,1,6.2,3.39c.53.79,1,1.63,1.49,2.46l28.74,49C847.1,244.54,847.52,245.21,848.1,246.17Z"/><path class="cls-1" d="M271.43,237.41V188.57c0-.64,0-1.28,0-1.92,0-.89.34-1.34,1.28-1.28.48,0,1,0,1.44,0h76a9.75,9.75,0,0,0,1.21,0c1.3-.16,1.62.46,1.61,1.67-.06,6.06,0,12.13-.08,18.19,0,3.47-1.76,5.15-5.34,5.31-2.4.1-4.81.08-7.22.08H307.16c-.56,0-1.12,0-1.68,0s-1.08.17-1.1.92c-.06,3.19-.18,6.38.07,9.57a2.44,2.44,0,0,0,1.33,1.87,7.73,7.73,0,0,0,4.37,1q16.25,0,32.49.07c2.87,0,2.6-.24,2.6,2.55q0,9.57,0,19.15c0,2.35.26,2.28-2.39,2.28H307.49c-.56,0-1.13,0-1.69,0-.73,0-1,.37-1,1q0,6.71,0,13.4c0,.8.32,1.18,1.14,1.14.56,0,1.12,0,1.68,0h43.8a15.68,15.68,0,0,0,1.68,0c1.16-.12,1.52.36,1.51,1.5-.05,5.19,0,10.38,0,15.56,0,2.4,0,4.79,0,7.18,0,1-.33,1.49-1.37,1.38-.4,0-.81,0-1.21,0h-78c-2.93,0-2.64.35-2.64-2.74Q271.43,262,271.43,237.41Z"/><path class="cls-1" d="M559.59,224.76c-4.42,0-8.83,0-13.24,0-2.3,0-2.53-.2-3.28-2.33a48.19,48.19,0,0,0-2.28-5.52c-2.51-5-6.58-7.62-12.16-8.11-10.84-.94-18.89,5.5-20.22,16.26a94.6,94.6,0,0,0,0,24.82,18.63,18.63,0,0,0,26.68,14.51,13,13,0,0,0,5.59-5.43,34.25,34.25,0,0,0,3.32-8.19,2,2,0,0,1,2.34-1.73c9,.07,18,0,27,0,1.78,0,1.79,0,1.73,1.67A46.76,46.76,0,0,1,572.34,265c-4.1,11.16-12,18.83-22.89,23.17-17.28,6.85-34.42,6-50.9-2.53-12.31-6.38-19.6-16.86-22.75-30.23a77.6,77.6,0,0,1-1.94-25.18,59.73,59.73,0,0,1,8.71-26.58,41.87,41.87,0,0,1,26-18.75,75.3,75.3,0,0,1,21.66-2.51,51,51,0,0,1,30.41,11c7,5.5,10.87,12.84,12.79,21.34a72.62,72.62,0,0,1,1.25,8c.2,1.88.21,1.91-1.64,1.92C568.57,224.77,564.08,224.76,559.59,224.76Z"/><path class="cls-1" d="M953.26,254.78v34.94c0,.56,0,1.12,0,1.67.07.92-.32,1.34-1.25,1.26a5.77,5.77,0,0,0-.72,0H922.2c-2.08,0-2.11,0-2.1-2.09q0-34.33.08-68.68c0-4.59-.9-5.57-5.43-5.33-7.29.38-14.59.17-21.88.07-1.65,0-1.69-.06-1.69-1.78q0-12,0-23.93c0-1.64.05-1.67,1.79-1.68,3,0,5.93,0,8.9,0H978.6a15.68,15.68,0,0,0,1.68,0c1.33-.16,1.61.51,1.61,1.68,0,8,0,16,0,23.94,0,1.59-.05,1.62-1.83,1.62H956.22c-.56,0-1.12,0-1.68,0-.91-.05-1.34.32-1.28,1.25,0,.55,0,1.11,0,1.67Z"/><path class="cls-1" d="M463.27,283.06a28.84,28.84,0,0,1-1.49-10.59,91.1,91.1,0,0,0-.42-12.9c-1.14-8.84-5.37-15.23-14.11-18.19l-.76-.3c.12-.24.14-.34.2-.38l2.24-1.37c6.72-4.12,11-10,12.22-17.77a39,39,0,0,0-1.36-18.45,20.2,20.2,0,0,0-12.29-13.25,59.19,59.19,0,0,0-18.45-4.13c-18.6-.83-37.21-.35-55.82-.44-2.71,0-3,.33-3,3.07q0,16.51,0,33,0,32.55,0,65.11c0,3.05-.27,2.63,2.73,2.64q13.47,0,26.95,0c3.33,0,3,.43,3-2.89q0-15.21,0-30.41c0-2.07,0-2.08,2.1-2.09h10.34a33.83,33.83,0,0,1,5.51.42c4.4.72,7.28,3.06,8.28,7.51a39.07,39.07,0,0,1,.71,7.85c.08,4.54,0,9.1.17,13.64s2.45,6.79,7,6.56c6.34-.34,12.67-.16,19-.11a88.06,88.06,0,0,0,10.7-.61A25.35,25.35,0,0,1,463.27,283.06Zm-32.8-59.92c-.43,3.36-2.18,5.15-5.56,5.59-2.7.35-5.41.64-8.13.83-4.07.29-8.16.51-12.24.71-1.54.07-1.57,0-1.59-1.55,0-2.79,0-5.58,0-8.37s0-5.43,0-8.14c0-1.16.2-1.73,1.57-1.63,6.48.43,13,.68,19.44,1.18,4.09.32,6,2.32,6.51,6.36A19.62,19.62,0,0,1,430.47,223.14Z"/><path class="cls-2" d="M81.55,316.61v32.14H78.18V316.61Z"/><path class="cls-2" d="M82.8,350H76.93V315.36H82.8Zm-3.37-2.49h.87V317.85h-.87Z"/><path class="cls-2" d="M95.82,348.75V316.61h5c6.79,7.71,22.75,25.67,25.49,29.16h.07c-.38-4.64-.32-9.37-.32-14.61V316.61h3.43v32.14h-4.61c-6.48-7.44-22.69-26.13-25.81-29.66H99c.31,4.22.25,8.91.25,14.74v14.92Z"/><path class="cls-2" d="M130.73,350H124.3l-.37-.43L113,337l-12.53-14.41c.08,2.69.08,5.59.07,8.8V350H94.57V315.36h6.81l.37.42c1.4,1.6,3.2,3.63,5.19,5.88,6,6.85,13.86,15.69,18,20.49-.11-2.92-.1-5.91-.1-9V315.36h5.93Zm-5.29-2.49h2.79V317.85h-.93v15.28c0,4.39,0,8.54.31,12.54l.11,1.34h-2l-.44-.47c-2.15-2.74-12.62-14.58-20.26-23.23l-4.82-5.46h-.66l.42.41c1.88,2.13,8.47,9.72,14.85,17.06Zm-28.37,0H98V331.33c0-4.61,0-8.59-.25-12.15l-.09-1.33h-.59Z"/><path class="cls-2" d="M176.79,348.39H174c-.25-.37-.37-2-.43-5.15-1.56,2.21-5,5.51-14.09,5.51-12.53,0-19-7-19-16.16,0-9.6,6.86-16.81,19.64-16.81,9.41,0,15.64,3.63,17,9.55H173.8c-1.87-4.54-6.17-7.25-13.78-7.25-10.91,0-15.89,6.24-15.89,14.37,0,7.35,4.8,14,15.45,14,10.91,0,14-5.24,14-12.36v-.36H159.46v-2.3h17.33Z"/><path class="cls-2" d="M159.46,350c-12.27,0-20.2-6.83-20.2-17.41,0-11,8.2-18.06,20.89-18.06,9.89,0,16.71,3.94,18.23,10.52l.35,1.53H173l-.32-.78c-1.79-4.36-5.92-6.48-12.62-6.48-9.31,0-14.64,4.79-14.64,13.13,0,6.17,3.73,12.76,14.2,12.76,10.64,0,12.52-5.29,12.7-10.23H158.21v-4.79H178v19.44h-4.72l-.37-.55c-.27-.39-.44-1-.55-2.79C169.43,348.76,165.09,350,159.46,350ZM175,347.14h.56V332.69h-.74v1.41a15.73,15.73,0,0,1-1.61,7.49l1.53-2.17.08,3.8C174.84,345.35,174.91,346.51,175,347.14Zm-24.44-28.31c-5.57,2.45-8.78,7.28-8.78,13.76,0,7.08,4,12.1,10.84,14-7-2.45-9.72-8.67-9.72-14.17C142.88,326,145.63,321.33,150.54,318.83Zm24.07,5.26h.83c-1.22-2.81-3.88-4.88-7.63-6A11.87,11.87,0,0,1,174.61,324.09Z"/><path class="cls-2" d="M215.12,333H192.87v13.5h24.37l-.5,2.29H189.5V316.61h26.74v2.29H192.87v11.76h22.25Z"/><path class="cls-2" d="M217.75,350h-29.5V315.36h29.24v4.79H194.12v9.26h22.25v4.79H194.12v11h24.67Zm-27-2.49h.87V317.85h-.87Z"/><path class="cls-2" d="M227.27,348.75V316.61h5c6.79,7.71,22.75,25.67,25.49,29.16h.06c-.37-4.64-.31-9.37-.31-14.61V316.61h3.43v32.14h-4.61c-6.48-7.44-22.69-26.13-25.81-29.66h-.06c.31,4.22.25,8.91.25,14.74v14.92Z"/><path class="cls-2" d="M262.18,350h-6.43l-.37-.43c-2.59-3-6.74-7.74-11-12.62l-12.53-14.41c.08,2.69.08,5.59.07,8.8V350H226V315.36h6.8l.38.42c1.4,1.6,3.2,3.63,5.19,5.88,6.05,6.85,13.86,15.69,18,20.49-.11-2.92-.1-5.91-.1-9V315.36h5.93Zm-5.29-2.49h2.79V317.85h-.93v15.28c0,4.39,0,8.54.31,12.54l.11,1.34h-2l-.44-.47c-2.16-2.74-12.62-14.58-20.26-23.23l-4.82-5.46H231l.42.41c1.88,2.13,8.47,9.72,14.85,17.06Zm-28.37,0h.93V331.33c0-4.61,0-8.59-.25-12.15l-.09-1.33h-.59Z"/><path class="cls-2" d="M278.57,316.61v32.14H275.2V316.61Z"/><path class="cls-2" d="M279.82,350H274V315.36h5.87Zm-3.37-2.49h.87V317.85h-.87Z"/><path class="cls-2" d="M318.46,333H296.21v13.5h24.37l-.5,2.29H292.84V316.61h26.74v2.29H296.21v11.76h22.25Z"/><path class="cls-2" d="M321.09,350h-29.5V315.36h29.24v4.79H297.46v9.26h22.25v4.79H297.46v11h24.67Zm-27-2.49H295V317.85h-.87Z"/><path class="cls-2" d="M334,333.74v15h-3.43V316.61h15.65c8.6,0,13.15,3.39,13.15,8.45,0,4.08-3.3,6.75-8.17,7.53,4.49.78,7.48,2.94,7.48,8.4v1.24c0,2.25-.25,5.28.56,6.52h-3.42c-.81-1.37-.63-3.95-.63-6.7v-.83c0-5.28-2.12-7.48-10.47-7.48Zm0-2.3h10.53c7.67,0,11.22-2.11,11.22-6.34,0-4-3.49-6.2-10.28-6.2H334Z"/><path class="cls-2" d="M361.59,350h-6.45l-.36-.62c-.86-1.45-.83-3.57-.81-6,0-.43,0-.86,0-1.3v-.83c0-4.31-1.33-6.24-9.22-6.24h-9.47v15h-5.93V315.36h16.9c9,0,14.4,3.63,14.4,9.7,0,3.37-1.89,6-5.21,7.58,3,1.58,4.52,4.35,4.52,8.35v1.24c0,.43,0,.88,0,1.35,0,1.52-.08,3.81.37,4.49Zm-4.89-2.49h.89a23.39,23.39,0,0,1-.13-4c0-.45,0-.89,0-1.3V341c0-3-1-5-3.2-6.16,1.55,1.4,2.21,3.48,2.21,6.39v.83c0,.45,0,.89,0,1.32A19,19,0,0,0,356.7,347.51Zm-24.84,0h.93V317.85h-.93Zm19.39-29.17c4.92,1.4,5.79,4.63,5.79,6.76a6.21,6.21,0,0,1-2.3,5.1,5.61,5.61,0,0,0,3.42-5.14C358.16,321.67,355.65,319.31,351.25,318.34Zm-16,11.85h9.28c10,0,10-3.7,10-5.09,0-4.09-4.91-5-9-5H335.29Z"/><path class="cls-2" d="M407.84,332c0,8.77-6.36,16.76-19.82,16.76-12.28,0-19.45-7.3-19.45-16.53s6.92-16.53,19.88-16.53C400.42,315.69,407.84,322.62,407.84,332Zm-35.66.09c0,7.4,5.55,14.38,16,14.38,11.29,0,16-6.8,16-14.42S398.86,318,388.33,318C377.11,318,372.18,324.83,372.18,332.08Z"/><path class="cls-2" d="M388,350c-12.19,0-20.7-7.31-20.7-17.78,0-8.85,6.53-17.78,21.13-17.78,12.35,0,20.64,7.05,20.64,17.55C409.09,341,402.57,350,388,350Zm-8.84-31.42c-5.88,2.39-9.36,7.23-9.36,13.64,0,7.35,4.72,12.76,12.22,14.6a15.34,15.34,0,0,1-11.11-14.74A14.56,14.56,0,0,1,379.18,318.58Zm16.95-.47A14.58,14.58,0,0,1,405.47,332c0,5.28-2.21,10.82-7.87,13.69a14.64,14.64,0,0,0,9-13.74C406.59,325.33,402.6,320.28,396.13,318.11Zm-7.8,1.12c-11,0-14.9,6.64-14.9,12.85s4.63,13.13,14.77,13.13c9.25,0,14.77-4.92,14.77-13.17C403,326.13,399.14,319.23,388.33,319.23Z"/><path class="cls-2" d="M419,339.75c1.31,4.27,5.18,6.8,12.34,6.8,8,0,11-2.94,11-6.43s-2.18-5.88-11.78-7.62c-9.23-1.7-13.22-3.91-13.22-8.55,0-4.22,4.18-8.17,13.53-8.17,9.6,0,13.65,4.32,14.21,8.22h-3.49c-1-3.44-4.05-5.92-10.91-5.92-6.29,0-9.72,2.15-9.72,5.74s2.86,4.91,10.91,6.38c12.27,2.25,14.08,5.88,14.08,9.74,0,4.73-4.67,8.81-14.77,8.81-10.91,0-14.9-4.68-15.71-9Z"/><path class="cls-2" d="M431.21,350c-13.59,0-16.37-7-16.94-10l-.27-1.47h5.92l.27.88c1.22,4,4.86,5.91,11.14,5.91s9.79-1.89,9.79-5.18c0-2.43-.81-4.59-10.76-6.4-8.55-1.57-14.24-3.84-14.24-9.77,0-4.34,3.87-9.42,14.78-9.42,10.4,0,14.8,4.8,15.45,9.29l.2,1.43h-5.87l-.26-.9c-1-3.38-4.16-5-9.71-5-2.55,0-8.47.44-8.47,4.5,0,2.31,1.42,3.61,9.88,5.15,10.73,2,15.11,5.15,15.11,11C447.23,344.58,443,350,431.21,350Zm-14.06-9c1,2.42,3.05,4.23,6.11,5.32a9.65,9.65,0,0,1-5.15-5.32Zm6.11-22.72c-3.32,1.36-4.64,3.63-4.64,5.67,0,3.14,2,5.45,12.19,7.32,9.34,1.7,12.81,4.1,12.81,8.85a6.56,6.56,0,0,1-3.2,5.66c2.75-1.33,4.31-3.35,4.31-5.84,0-3-1-6.31-13.06-8.51-8.09-1.48-11.93-3-11.93-7.61A6.07,6.07,0,0,1,423.26,318.28Zm19.25,4.47h1c-.77-1.83-2.58-3.64-5.73-4.72A8.45,8.45,0,0,1,442.51,322.75Z"/><path class="cls-2" d="M478.83,337.64l-5.55,11.11h-3.43l16-32.14h4l16.7,32.14h-3.67l-5.68-11.11Zm17.26-2.3c-4.86-9.55-7.35-14.14-8.22-16.3h-.07c-1.06,2.43-3.86,8.13-7.79,16.3Z"/><path class="cls-2" d="M508.62,350h-6.5l-5.67-11.11H479.6L474.05,350h-6.22l17.27-34.64h5.52Zm-5-2.49h.86L489.1,317.85h-.43l.35.72c.56,1.37,1.85,3.88,4,8,1.14,2.21,2.52,4.9,4.19,8.17l.92,1.81h-.05Zm-31.78,0h.63l5.55-11.12h.07l.76-1.58,3.33-6.9c2.16-4.48,3.73-7.71,4.45-9.37l.3-.69h-.32ZM482,334.1h12.06c-1.26-2.47-2.35-4.56-3.27-6.35-1.29-2.51-2.26-4.38-3-5.79-.84,1.78-2,4.15-3.38,7Z"/><path class="cls-2" d="M516.35,339.75c1.31,4.27,5.17,6.8,12.34,6.8,8,0,11-2.94,11-6.43s-2.18-5.88-11.78-7.62c-9.22-1.7-13.21-3.91-13.21-8.55,0-4.22,4.17-8.17,13.52-8.17,9.6,0,13.65,4.32,14.21,8.22H539c-1-3.44-4.05-5.92-10.9-5.92-6.3,0-9.73,2.15-9.73,5.74s2.87,4.91,10.91,6.38c12.28,2.25,14.09,5.88,14.09,9.74,0,4.73-4.68,8.81-14.78,8.81-10.9,0-14.89-4.68-15.7-9Z"/><path class="cls-2" d="M528.56,350c-13.58,0-16.37-7-16.93-10l-.28-1.47h5.92l.27.88c1.22,4,4.87,5.91,11.15,5.91s9.78-1.89,9.78-5.18c0-2.43-.81-4.59-10.75-6.4-8.55-1.57-14.24-3.84-14.24-9.77,0-4.34,3.87-9.42,14.77-9.42,10.41,0,14.81,4.8,15.45,9.29l.21,1.43H538l-.26-.9c-1-3.38-4.15-5-9.7-5-2.55,0-8.48.44-8.48,4.5,0,2.31,1.43,3.61,9.89,5.15,10.73,2,15.11,5.15,15.11,11C544.59,344.58,540.39,350,528.56,350Zm-14-9c1,2.42,3,4.23,6.1,5.32a9.69,9.69,0,0,1-5.15-5.32Zm6.11-22.72c-3.33,1.36-4.64,3.63-4.64,5.67,0,3.14,2,5.45,12.19,7.32,9.33,1.7,12.8,4.1,12.8,8.85a6.54,6.54,0,0,1-3.2,5.66c2.75-1.33,4.32-3.35,4.32-5.84,0-3-1-6.31-13.07-8.51-8.08-1.48-11.93-3-11.93-7.61A6.09,6.09,0,0,1,520.62,318.28Zm19.25,4.47h1c-.78-1.83-2.58-3.64-5.73-4.72A8.48,8.48,0,0,1,539.87,322.75Z"/><path class="cls-2" d="M591.14,332c0,8.77-6.35,16.76-19.82,16.76-12.28,0-19.45-7.3-19.45-16.53s6.92-16.53,19.89-16.53C583.73,315.69,591.14,322.62,591.14,332Zm-35.65.09c0,7.4,5.55,14.38,16,14.38,11.28,0,16-6.8,16-14.42S582.17,318,571.63,318C560.41,318,555.49,324.83,555.49,332.08Z"/><path class="cls-2" d="M571.32,350c-12.19,0-20.7-7.31-20.7-17.78,0-8.85,6.54-17.78,21.14-17.78,12.34,0,20.63,7.05,20.63,17.55C592.39,341,585.88,350,571.32,350Zm-8.83-31.42c-5.88,2.39-9.37,7.23-9.37,13.64,0,7.35,4.72,12.76,12.23,14.6a15.32,15.32,0,0,1-11.11-14.74A14.54,14.54,0,0,1,562.49,318.58Zm16.94-.47A14.59,14.59,0,0,1,588.78,332c0,5.28-2.21,10.82-7.88,13.69a14.63,14.63,0,0,0,9-13.74C589.89,325.33,585.9,320.28,579.43,318.11Zm-7.8,1.12c-11,0-14.89,6.64-14.89,12.85s4.62,13.13,14.77,13.13c9.25,0,14.77-4.92,14.77-13.17C586.28,326.13,582.44,319.23,571.63,319.23Z"/><path class="cls-2" d="M635.08,339.8c-2.05,5.1-7.16,8.95-16.39,8.95-12.53,0-19.14-7.34-19.14-16.39,0-8.68,6.49-16.58,19.2-16.58,9.41,0,15,3.86,16.4,9.23h-3.37c-2-4.18-5.67-6.93-13.21-6.93-10.85,0-15.4,7.3-15.4,14.23s4.49,14.15,15.64,14.15c7.11,0,10.73-2.71,12.91-6.66Z"/><path class="cls-2" d="M618.69,350c-14.08,0-20.39-8.86-20.39-17.64,0-8.59,6.4-17.83,20.45-17.83,9.33,0,15.91,3.8,17.6,10.16l.42,1.57H631l-.34-.71c-2-4.31-5.78-6.23-12.08-6.23-10.45,0-14.15,7-14.15,13s3.77,12.9,14.39,12.9c5.87,0,9.52-1.85,11.81-6l.36-.65h5.95l-.69,1.71C634.78,343.9,630.54,350,618.69,350Zm-8.21-31.56a14.61,14.61,0,0,0-9.68,13.92c0,7.09,4.17,12.24,11,14.24a15.38,15.38,0,0,1-1.36-28.16Zm22,22.6a12.9,12.9,0,0,1-5.55,5.1,12.2,12.2,0,0,0,6.18-5.1Zm.11-17.28h.81c-1.23-2.57-3.66-4.5-7-5.62A12,12,0,0,1,632.55,323.76Z"/><path class="cls-2" d="M649.29,316.61v32.14h-3.37V316.61Z"/><path class="cls-2" d="M650.54,350h-5.87V315.36h5.87Zm-3.37-2.49H648V317.85h-.87Z"/><path class="cls-2" d="M667.62,337.64l-5.55,11.11h-3.43l16-32.14h4l16.7,32.14h-3.68L686,337.64Zm17.26-2.3c-4.86-9.55-7.35-14.14-8.23-16.3h-.06c-1.06,2.43-3.86,8.13-7.79,16.3Z"/><path class="cls-2" d="M697.41,350h-6.5l-5.67-11.11H668.39L662.84,350h-6.22l17.26-34.64h5.53Zm-5-2.49h.86l-15.41-29.66h-.43l.35.72c.56,1.37,1.85,3.88,4,8,1.14,2.21,2.52,4.9,4.19,8.17l.92,1.81h0Zm-31.78,0h.63l5.55-11.12h.07l.76-1.58c1.22-2.55,2.34-4.85,3.33-6.9,2.16-4.48,3.72-7.71,4.44-9.37l.31-.69h-.32Zm10.13-13.41h12.05c-1.26-2.47-2.34-4.56-3.26-6.35-1.3-2.51-2.26-4.38-3-5.79-.84,1.78-2,4.15-3.38,7C672.5,330.55,671.67,332.25,670.79,334.1Z"/><path class="cls-2" d="M704.51,316.61H719c12,0,20.26,6.15,20.26,15.79s-8.1,16.35-20.32,16.35h-14.4Zm3.37,29.85h10.53c11.53,0,17.21-6,17.21-13.92,0-7.07-5.12-13.64-17.21-13.64H707.88Z"/><path class="cls-2" d="M718.91,350H703.26V315.36H719c12.87,0,21.51,6.85,21.51,17C740.48,342.76,731.61,350,718.91,350Zm-13.15-2.49h.87V317.85h-.87Zm20.06-28.89c8,2.33,11,8.49,11,13.92a13.88,13.88,0,0,1-9.21,13.56c6.4-2.29,10.32-7.24,10.32-13.7C738,325.46,733.38,320.45,725.82,318.62Zm-16.69,26.59h9.28c10,0,16-4.73,16-12.67,0-6-4.19-12.39-16-12.39h-9.28Z"/><path class="cls-2" d="M786.91,332c0,8.77-6.35,16.76-19.82,16.76-12.28,0-19.45-7.3-19.45-16.53s6.92-16.53,19.89-16.53C779.5,315.69,786.91,322.62,786.91,332Zm-35.65.09c0,7.4,5.55,14.38,16,14.38,11.28,0,16-6.8,16-14.42S777.94,318,767.4,318C756.18,318,751.26,324.83,751.26,332.08Z"/><path class="cls-2" d="M767.09,350c-12.18,0-20.7-7.31-20.7-17.78,0-8.85,6.54-17.78,21.14-17.78,12.34,0,20.63,7.05,20.63,17.55C788.16,341,781.65,350,767.09,350Zm-8.83-31.42c-5.88,2.39-9.37,7.23-9.37,13.64,0,7.35,4.72,12.76,12.23,14.6A15.32,15.32,0,0,1,750,332.08,14.54,14.54,0,0,1,758.26,318.58Zm16.94-.47A14.59,14.59,0,0,1,784.55,332c0,5.28-2.21,10.82-7.88,13.69a14.63,14.63,0,0,0,9-13.74C785.66,325.33,781.67,320.28,775.2,318.11Zm-7.8,1.12c-11,0-14.89,6.64-14.89,12.85s4.62,13.13,14.77,13.13c9.25,0,14.77-4.92,14.77-13.17C782.05,326.13,778.21,319.23,767.4,319.23Z"/><path class="cls-2" d="M798.07,339.75c1.31,4.27,5.17,6.8,12.34,6.8,8,0,11-2.94,11-6.43s-2.18-5.88-11.78-7.62c-9.22-1.7-13.21-3.91-13.21-8.55,0-4.22,4.17-8.17,13.52-8.17,9.6,0,13.65,4.32,14.21,8.22h-3.49c-1-3.44-4.05-5.92-10.9-5.92-6.3,0-9.73,2.15-9.73,5.74s2.87,4.91,10.91,6.38c12.28,2.25,14.09,5.88,14.09,9.74,0,4.73-4.68,8.81-14.77,8.81-10.91,0-14.9-4.68-15.71-9Z"/><path class="cls-2" d="M810.29,350c-13.59,0-16.38-7-16.94-10l-.28-1.47H799l.27.88c1.22,4,4.87,5.91,11.15,5.91s9.78-1.89,9.78-5.18c0-2.43-.81-4.59-10.75-6.4-8.55-1.57-14.24-3.84-14.24-9.77,0-4.34,3.87-9.42,14.77-9.42,10.41,0,14.81,4.8,15.45,9.29l.21,1.43h-5.88l-.26-.9c-1-3.38-4.15-5-9.7-5-2.55,0-8.48.44-8.48,4.5,0,2.31,1.43,3.61,9.89,5.15,10.73,2,15.11,5.15,15.11,11C826.31,344.58,822.11,350,810.29,350Zm-14.06-9c.95,2.42,3,4.23,6.1,5.32a9.69,9.69,0,0,1-5.15-5.32Zm6.11-22.72c-3.33,1.36-4.64,3.63-4.64,5.67,0,3.14,2,5.45,12.19,7.32,9.33,1.7,12.8,4.1,12.8,8.85a6.55,6.55,0,0,1-3.19,5.66c2.74-1.33,4.31-3.35,4.31-5.84,0-3-1-6.31-13.06-8.51-8.09-1.48-11.94-3-11.94-7.61A6.09,6.09,0,0,1,802.34,318.28Zm19.25,4.47h1c-.78-1.83-2.58-3.64-5.73-4.72A8.48,8.48,0,0,1,821.59,322.75Z"/><path class="cls-2" d="M853.73,339.75c1.31,4.27,5.17,6.8,12.34,6.8,8,0,11-2.94,11-6.43s-2.18-5.88-11.78-7.62c-9.22-1.7-13.21-3.91-13.21-8.55,0-4.22,4.17-8.17,13.52-8.17,9.6,0,13.65,4.32,14.21,8.22h-3.49c-1-3.44-4.05-5.92-10.9-5.92-6.3,0-9.73,2.15-9.73,5.74s2.87,4.91,10.91,6.38c12.28,2.25,14.09,5.88,14.09,9.74,0,4.73-4.68,8.81-14.78,8.81-10.9,0-14.89-4.68-15.7-9Z"/><path class="cls-2" d="M865.94,350c-13.58,0-16.37-7-16.93-10l-.28-1.47h5.92l.27.88c1.22,4,4.87,5.91,11.15,5.91s9.78-1.89,9.78-5.18c0-2.43-.81-4.59-10.75-6.4-8.55-1.57-14.24-3.84-14.24-9.77,0-4.34,3.87-9.42,14.77-9.42,10.41,0,14.81,4.8,15.45,9.29l.21,1.43h-5.88l-.26-.9c-1-3.38-4.15-5-9.7-5-2.55,0-8.48.44-8.48,4.5,0,2.31,1.43,3.61,9.89,5.15,10.73,2,15.11,5.15,15.11,11C882,344.58,877.77,350,865.94,350Zm-14.05-9c1,2.42,3.05,4.23,6.1,5.32a9.69,9.69,0,0,1-5.15-5.32ZM858,318.28c-3.33,1.36-4.64,3.63-4.64,5.67,0,3.14,2,5.45,12.19,7.32,9.33,1.7,12.8,4.1,12.8,8.85a6.54,6.54,0,0,1-3.2,5.66c2.75-1.33,4.32-3.35,4.32-5.84,0-3-1-6.31-13.07-8.51-8.08-1.48-11.93-3-11.93-7.61A6.09,6.09,0,0,1,858,318.28Zm19.25,4.47h1c-.78-1.83-2.58-3.64-5.73-4.72A8.48,8.48,0,0,1,877.25,322.75Z"/><path class="cls-2" d="M889.07,348.75v-5.92h3.11v5.92Z"/><path class="cls-2" d="M893.43,350h-5.61v-8.42h5.61Zm-3.11-2.49h.61v-3.43h-.61Z"/><path class="cls-2" d="M909.2,337.64l-5.55,11.11h-3.43l16-32.14h4l16.71,32.14h-3.68l-5.67-11.11Zm17.26-2.3c-4.86-9.55-7.35-14.14-8.22-16.3h-.07c-1.06,2.43-3.86,8.13-7.79,16.3Z"/><path class="cls-2" d="M939,350h-6.5l-5.67-11.11H910L904.42,350h-6.21l17.26-34.64H921Zm-5-2.49h.86l-15.41-29.66h-.42l.35.72c.55,1.37,1.84,3.88,4,8,1.14,2.21,2.53,4.9,4.19,8.17l.92,1.81h0Zm-31.78,0h.64l5.54-11.12h.07l.76-1.58,3.33-6.9c2.16-4.48,3.73-7.71,4.45-9.37l.3-.69H917Zm10.13-13.41h12.06c-1.26-2.47-2.34-4.56-3.26-6.35-1.3-2.51-2.26-4.38-3-5.79-.84,1.78-2,4.15-3.38,7Z"/><path class="cls-2" d="M945.35,348.75v-5.92h3.11v5.92Z"/><path class="cls-2" d="M949.71,350H944.1v-8.42h5.61Zm-3.11-2.49h.61v-3.43h-.61Z"/><path class="cls-2" d="M990.85,339.8c-2.06,5.1-7.17,8.95-16.39,8.95-12.53,0-19.14-7.34-19.14-16.39,0-8.68,6.48-16.58,19.2-16.58,9.41,0,15,3.86,16.39,9.23h-3.36c-2-4.18-5.68-6.93-13.22-6.93-10.84,0-15.4,7.3-15.4,14.23s4.49,14.15,15.65,14.15c7.11,0,10.72-2.71,12.9-6.66Z"/><path class="cls-2" d="M974.46,350c-14.09,0-20.39-8.86-20.39-17.64,0-8.59,6.4-17.83,20.45-17.83,9.32,0,15.9,3.8,17.6,10.16l.42,1.57h-5.78l-.34-.71c-2.06-4.31-5.79-6.23-12.09-6.23-10.44,0-14.15,7-14.15,13s3.78,12.9,14.4,12.9c5.87,0,9.51-1.85,11.81-6l.36-.65h6l-.69,1.71C990.54,343.9,986.31,350,974.46,350Zm-8.21-31.56a14.61,14.61,0,0,0-9.68,13.92c0,7.09,4.16,12.24,11,14.24a15.37,15.37,0,0,1-1.36-28.16Zm22,22.6a12.84,12.84,0,0,1-5.55,5.1,12.22,12.22,0,0,0,6.19-5.1Zm.11-17.28h.82c-1.23-2.57-3.66-4.5-7-5.62A12,12,0,0,1,988.31,323.76Z"/><path class="cls-2" d="M998.7,348.75v-5.92h3.12v5.92Z"/><path class="cls-2" d="M1003.07,350h-5.62v-8.42h5.62Zm-3.12-2.49h.62v-3.43H1000Z"/><path class="cls-3" d="M653.57,274.29a46.34,46.34,0,0,1-1.45,15,7.78,7.78,0,0,1-.79,2,38.29,38.29,0,0,1-.48-4.85c-.84-9.22-5-16.8-11.39-23.26-6.76-6.85-14.94-11.53-23.76-15.19-2.73-1.13-4.51-1.55-7-2.41a1.05,1.05,0,0,0-1.36,1.28A71.26,71.26,0,0,0,615,267.81a36.31,36.31,0,0,0,9.42,11.13,23.5,23.5,0,0,0,5.3,3c3.87,1.63,5.09,1.71,5-.77a10.57,10.57,0,0,0-1.25-4.1c-2.32-5-5.62-9.33-9-13.61-.55-.68-1.13-1.36-1.69-2-.28-.47.05-.6.48-.52,0,0,24,11.38,24,40.23A93.3,93.3,0,0,1,584.53,213c0-1.67,0-3.32.13-5,0,0,18.25,20.75,38.1,27.21,8.26,3.13,14.17,6.8,19.29,12C649.38,254.77,653,263.89,653.57,274.29Z"/><path class="cls-4" d="M661.58,151.52H643a1.27,1.27,0,0,0-1.28,1.27v50.26a1.38,1.38,0,0,1-1.37,1.37h-1a.94.94,0,0,0-.93.94v13.88a2.08,2.08,0,0,1-2.07,2.07h-1.68a2.07,2.07,0,0,1-2.06-2.07v-23a1.29,1.29,0,0,0-.91-1.23l-18.46-5.71a1.29,1.29,0,0,0-1.66,1.23v25.33a.85.85,0,0,1-1.21.78c-4.15-1.89-18.48-6.86-23-26.54a93.26,93.26,0,0,1,163.39-35.26,47.89,47.89,0,0,1-22.61,39.47.26.26,0,0,1-.39-.21v-28.8a1.28,1.28,0,0,0-1.28-1.28H713.69a1.28,1.28,0,0,0-1.28,1.28v28.8a2.07,2.07,0,0,1-2.07,2.07,2,2,0,0,1-1.42-.58,2.07,2.07,0,0,1-.65-1.41l-.74-18.8a1.27,1.27,0,0,0-1-1.19l-15.22-3.71-.38-5.87a1.29,1.29,0,0,0-1.37-1.19l-2.68.21-.45-10.41a1.27,1.27,0,0,0-1.3-1.22l-9.81.21a1.29,1.29,0,0,0-1.25,1.18l-.69,9.55-2.86.47a1.27,1.27,0,0,0-1.08,1.26v29.52a2.07,2.07,0,0,1-2.07,2.07h-2.47a2.07,2.07,0,0,1-2.07-2.07V152.79A1.27,1.27,0,0,0,661.58,151.52Z"/><path class="cls-5" d="M771,213a93.27,93.27,0,0,1-80.51,92.4,149.18,149.18,0,0,0,46.41-33.92,74.4,74.4,0,0,0,18.37-39.55,8.77,8.77,0,0,0,.19-2.12.39.39,0,0,0-.57-.31c-2.75,1.52-16.88,9.5-25,11.64-6.83,1.79-13.7,3.41-20.49,5.3a40.28,40.28,0,0,0-19.91,12,41.64,41.64,0,0,0-9.1,18.34,3.23,3.23,0,0,0,0,2c.43.15.65-.13.87-.34,5.74-5.32,12.67-8.38,20.09-10.43,4.87-1.36,9.77-2.54,14.65-3.84a55.73,55.73,0,0,0,11.69-4.36c.76-.41,1.33-.55,1.68.43.28.76,1.11,1.5-.21,2.17-6.52,3.28-12.73,7.15-19.74,9.41A68.66,68.66,0,0,0,687,283.66a55.15,55.15,0,0,0-13.86,16.78,12.28,12.28,0,0,1-.79,1.48c-.85,1.16-2.62,1.14-3.09-.08-2.42-6.19-5.4-12.17-6.57-18.8A36.32,36.32,0,0,1,667,257.53c9.77-16.75,23.8-28.38,41.9-35.18a155,155,0,0,0,23.61-10.75,79.61,79.61,0,0,0,16.33-12.23,41.32,41.32,0,0,0,12-28.85A92.82,92.82,0,0,1,771,213Z"/></g></svg>