<svg xmlns="http://www.w3.org/2000/svg" viewBox="0 0 1080 1080"><defs><style>.cls-1{fill:#96c341;}.cls-2{fill:#1b9dca;}.cls-3{fill:#3e9146;}</style></defs><title>Sin título-1</title><g id="Capa_12" data-name="Capa 12"><path class="cls-1" d="M399.76,899.09c1.57,29.48-.46,58.73-8.36,87.33A45.39,45.39,0,0,1,386.81,998c-2-9.4-2-18.91-2.79-28.19-4.83-53.65-28.94-97.72-65.95-135.32-39.17-39.81-86.52-67.07-137.6-88.32-15.8-6.6-26.08-9.05-40.67-14-5-1.69-8.83,2.63-7.9,7.41,9.3,43,22.72,83.54,44.68,121.83,14.3,24.93,31.67,47.23,54.56,64.74a139.51,139.51,0,0,0,30.68,17.46c22.43,9.45,29.52,9.92,28.94-4.5-.29-8.58-3.72-16.29-7.26-23.88-13.43-29-32.54-54.23-52.18-79.15-3.2-4-6.51-7.88-9.77-11.85-1.62-2.75.3-3.5,2.79-3,0,0,138.82,66.2,138.64,234C151.71,981.64,0,779.89,0,542.54c0-9.69.23-19.32.76-28.84,0,0,105.69,120.72,220.62,158.26,47.82,18.21,82.05,39.58,111.68,70C375.53,785.56,396.57,838.62,399.76,899.09Z"/><path class="cls-2" d="M446.19,185H338.81a7.43,7.43,0,0,0-7.44,7.41V484.75a7.93,7.93,0,0,1-7.9,7.94h-6a5.46,5.46,0,0,0-5.41,5.48v80.74a12,12,0,0,1-12,12h-9.7a12,12,0,0,1-12-12V445.4a7.39,7.39,0,0,0-5.23-7.12L166.24,405.07a7.42,7.42,0,0,0-9.59,7.12V559.53a5,5,0,0,1-7,4.55c-24.05-11-107-39.93-133.29-154.4C75.3,174.25,287.39,0,540,0,711,0,863.5,79.92,962.45,204.61c0,0,4.65,143.42-130.91,229.58a1.49,1.49,0,0,1-2.26-1.22V265.43a7.43,7.43,0,0,0-7.44-7.41H747.93a7.42,7.42,0,0,0-7.44,7.41V433a12,12,0,0,1-12,12,12.14,12.14,0,0,1-12-11.55l-4.3-109.34a7.4,7.4,0,0,0-5.63-7l-88.15-21.54-2.15-34.15a7.47,7.47,0,0,0-8-6.94l-15.51,1.22-2.62-60.53a7.42,7.42,0,0,0-7.55-7.13l-56.77,1.23a7.49,7.49,0,0,0-7.26,6.89l-3.95,55.51-16.62,2.75a7.39,7.39,0,0,0-6.22,7.35V433.49a12,12,0,0,1-12,12H465.54a12,12,0,0,1-12-12V192.4A7.41,7.41,0,0,0,446.19,185Z"/><path class="cls-3" d="M1080,542.54C1080,817,877.15,1043.87,613.82,1080c95.24-43,199.48-119.67,268.74-197.31C941.24,816.9,975.93,739.79,989,652.63c.58-4,1.39-8,1-12.31a2.23,2.23,0,0,0-3.25-1.81c-15.92,8.87-97.79,55.28-145,67.71-39.51,10.45-79.31,19.85-118.65,30.83C678.38,749.54,639,771.6,607.84,807c-27.14,30.76-43.17,67.07-52.7,106.65-.93,4-1.4,8.06.23,11.91,2.5.87,3.78-.76,5-2,33.24-30.93,73.33-48.74,116.33-60.71,28.18-7.88,56.59-14.76,84.83-22.3,23.42-6.24,46.26-14.06,67.7-25.39,4.41-2.33,7.67-3.15,9.7,2.51,1.63,4.44,6.45,8.76-1.22,12.67-37.71,19-73.68,41.56-114.29,54.7-47.24,15.29-91.17,37.06-130,68.59-33.36,27.08-59.85,59.77-80.25,97.6-1.57,2.86-2.67,6-4.59,8.58-4.94,6.77-15.16,6.66-17.89-.47-14-35.95-31.26-70.75-38.06-109.33-9.3-52.48-2.33-102,24.63-148.39C533.87,704.18,615.16,636.52,719.92,597c47-17.74,93.26-37.12,136.72-62.52,34.29-20,66.36-43,94.6-71.16,44.8-44.54,68.5-104.66,69.67-167.77A542.24,542.24,0,0,1,1080,542.54Z"/></g></svg>